<?xml version="1.0" encoding="UTF-8"?>
<svg version="1.1" xmlns="http://www.w3.org/2000/svg" width="40" height="40">
<path d="M0 0 C0.67289063 -0.03287109 1.34578125 -0.06574219 2.0390625 -0.09960938 C5.58749415 -0.13802743 7.23774806 0.06188242 9.8190918 2.56567383 C11.97063106 5.98713609 12.12769028 7.9306059 12.12109375 11.9453125 C12.12173828 13.17894531 12.12238281 14.41257812 12.12304688 15.68359375 C12.10306641 16.96363281 12.08308594 18.24367188 12.0625 19.5625 C12.06958984 20.85027344 12.07667969 22.13804688 12.08398438 23.46484375 C12.02019233 32.83736694 12.02019233 32.83736694 10.39672852 35.30273438 C8.09208386 36.77882482 6.57282708 36.8250087 3.84375 36.8359375 C2.91949219 36.83980469 1.99523437 36.84367187 1.04296875 36.84765625 C0.08003906 36.83605469 -0.88289063 36.82445312 -1.875 36.8125 C-2.83792969 36.82410156 -3.80085937 36.83570313 -4.79296875 36.84765625 C-5.71722656 36.84378906 -6.64148438 36.83992188 -7.59375 36.8359375 C-8.43873047 36.83255371 -9.28371094 36.82916992 -10.15429688 36.82568359 C-12.86739912 36.35142759 -13.75816085 35.63940722 -15.375 33.4375 C-15.73828125 30.37109375 -15.73828125 30.37109375 -15.6875 26.875 C-15.68363281 25.71871094 -15.67976562 24.56242187 -15.67578125 23.37109375 C-15.375 20.4375 -15.375 20.4375 -13.375 18.4375 C-10.75 18.3125 -10.75 18.3125 -8.375 18.4375 C-8.54 17.468125 -8.705 16.49875 -8.875 15.5 C-9.48051471 11.199968 -9.8946211 6.76180439 -9.375 2.4375 C-6.54607351 -0.39142649 -3.78562581 0.03226386 0 0 Z " fill="#EF8E84" transform="translate(17.375,1.5625)"/>
<path d="M0 0 C0.67289063 -0.03287109 1.34578125 -0.06574219 2.0390625 -0.09960938 C5.58749415 -0.13802743 7.23774806 0.06188242 9.8190918 2.56567383 C11.97063106 5.98713609 12.12769028 7.9306059 12.12109375 11.9453125 C12.12173828 13.17894531 12.12238281 14.41257812 12.12304688 15.68359375 C12.10306641 16.96363281 12.08308594 18.24367188 12.0625 19.5625 C12.06958984 20.85027344 12.07667969 22.13804688 12.08398438 23.46484375 C12.02019973 32.83628018 12.02019973 32.83628018 10.39892578 35.30273438 C8.08424229 36.78341823 6.54850126 36.82504736 3.80859375 36.8359375 C2.87982422 36.83980469 1.95105469 36.84367187 0.99414062 36.84765625 C0.02669922 36.83605469 -0.94074219 36.82445312 -1.9375 36.8125 C-2.90880859 36.82410156 -3.88011719 36.83570313 -4.88085938 36.84765625 C-6.27208008 36.84185547 -6.27208008 36.84185547 -7.69140625 36.8359375 C-8.96673218 36.83086182 -8.96673218 36.83086182 -10.26782227 36.82568359 C-10.96319092 36.69758301 -11.65855957 36.56948242 -12.375 36.4375 C-13.035 35.4475 -13.695 34.4575 -14.375 33.4375 C-7.115 33.1075 0.145 32.7775 7.625 32.4375 C7.64791394 28.32572073 7.66783951 24.21410342 7.67993164 20.10229492 C7.6849708 18.70254772 7.69180216 17.3028058 7.70043945 15.90307617 C7.7125232 13.89504223 7.71769807 11.88697043 7.72265625 9.87890625 C7.72789307 8.66920166 7.73312988 7.45949707 7.73852539 6.21313477 C7.94275285 3.52937983 7.94275285 3.52937983 6.625 2.4375 C4.43860547 2.36491054 2.24999611 2.35376217 0.0625 2.375 C-3.1240625 2.4059375 -3.1240625 2.4059375 -6.375 2.4375 C-6.705 8.0475 -7.035 13.6575 -7.375 19.4375 C-9.355 19.4375 -11.335 19.4375 -13.375 19.4375 C-13.375 19.1075 -13.375 18.7775 -13.375 18.4375 C-11.725 18.4375 -10.075 18.4375 -8.375 18.4375 C-8.54 17.468125 -8.705 16.49875 -8.875 15.5 C-9.48051471 11.199968 -9.8946211 6.76180439 -9.375 2.4375 C-6.54607351 -0.39142649 -3.78562581 0.03226386 0 0 Z " fill="#F9714E" transform="translate(17.375,1.5625)"/>
</svg>
